<svg id="Layer_1" data-name="Layer 1" xmlns="http://www.w3.org/2000/svg" viewBox="0 0 172.47 172.47"><defs><style>.cls-1{fill:#fff;}</style></defs><title>data_manage</title><polygon class="cls-1" points="117.02 86.99 90.17 71.7 63.32 86.99 90.17 102.28 117.02 86.99"/><path class="cls-1" d="M75.08,154.49v-10.8h56.53v24.88H75.08V157.79H58.62V103.25H72L102,86.2V63.82H86A11.31,11.31,0,0,1,74.71,52.51V51A11.31,11.31,0,0,1,86,39.69h34.67A11.31,11.31,0,0,1,132,51v1.51a11.31,11.31,0,0,1-11.31,11.31H105.24V86.48l32.33,18.41-34.23,19.48L72,106.54H61.9v48H75.08ZM99.7,17.94a86.24,86.24,0,1,0,86.24,86.24A86.23,86.23,0,0,0,99.7,17.94Z" transform="translate(-13.47 -17.94)"/></svg>