<svg id="Layer_1" data-name="Layer 1" xmlns="http://www.w3.org/2000/svg" viewBox="0 0 178.37 172.47"><defs><style>.cls-1{fill:#fff;}.cls-2{fill:#3cbce3;}.cls-3{fill:none;stroke:#3cbce3;stroke-miterlimit:10;stroke-width:2px;}</style></defs><title>interactive_viz</title><path class="cls-1" d="M98.56,17.51c49.28,0,89.19,38.59,89.19,86.24S147.84,190,98.56,190,9.38,151.4,9.38,103.75,49.28,17.51,98.56,17.51Z" transform="translate(-9.38 -17.51)"/><polygon class="cls-2" points="66.97 77.7 65.65 76.23 98.39 47.13 99.7 48.6 66.97 77.7"/><polygon class="cls-2" points="65.44 77.47 44.07 42.81 45.74 41.78 67.11 76.43 65.44 77.47"/><polygon class="cls-2" points="48.72 43.78 49.6 42.05 105.15 64.33 104.27 66.06 48.72 43.78"/><rect class="cls-2" x="62.08" y="75.44" width="39.55" height="1.76"/><polygon class="cls-2" points="56.11 105.97 65.28 75.75 67.17 76.32 58 106.55 56.11 105.97"/><rect class="cls-2" x="51.7" y="93.86" width="23.93" height="1.97" transform="translate(-12.42 -15.4) rotate(-1.86)"/><path class="cls-2" d="M82.83,87.49a10,10,0,1,1-14.13-.26,10,10,0,0,1,14.13.26" transform="translate(-9.38 -17.51)"/><path class="cls-2" d="M57.32,89.82c7.19,7.46-4,18.25-11.2,10.79s4-18.26,11.2-10.79" transform="translate(-9.38 -17.51)"/><path class="cls-2" d="M65.3,49.21a13.94,13.94,0,1,1-19.71-.35,13.95,13.95,0,0,1,19.71.35" transform="translate(-9.38 -17.51)"/><path class="cls-2" d="M71.2,117.91a15.79,15.79,0,1,1-22.33-.41,15.79,15.79,0,0,1,22.33.41" transform="translate(-9.38 -17.51)"/><path class="cls-3" d="M143.19,79.95a18,18,0,1,1-25.5-.46,18,18,0,0,1,25.5.46" transform="translate(-9.38 -17.51)"/><path class="cls-2" d="M112.71,61.26c5.48,5.68-3,13.9-8.52,8.22s3-13.9,8.52-8.22" transform="translate(-9.38 -17.51)"/><path class="cls-3" d="M139.43,83.58a13.18,13.18,0,1,1-18.64-.34,13.18,13.18,0,0,1,18.64.34" transform="translate(-9.38 -17.51)"/><path class="cls-3" d="M135.88,86.79a8.21,8.21,0,1,1-11.61-.21,8.21,8.21,0,0,1,11.61.21" transform="translate(-9.38 -17.51)"/><path class="cls-2" d="M136.72,161.44c-4.75,11.33-15.67,13-17.73,13.27l-16.8-7c-5.28-2.21-5.05-17.22-4.89-28.18,0.08-5.36.15-10-.33-13-0.3-1.95.18-4.31,2-5.19a3,3,0,0,1,2.51-.2,2.5,2.5,0,0,1,1.4,1.56l2.89,10.8a1.77,1.77,0,0,0,1.64,1.25,2.08,2.08,0,0,0,1.83-1.16L126,93.44a3.51,3.51,0,0,1,4.43-2.06,3.47,3.47,0,0,1,1.67,4.53l-8.82,21a1.66,1.66,0,0,0,.61,2.32,1.72,1.72,0,0,0,2.17-1.15,3.58,3.58,0,0,1,4.52-1.94,3.63,3.63,0,0,1,1.77,4.66l-1.44,3.43a1.65,1.65,0,0,0,.61,2.32,1.72,1.72,0,0,0,2.17-1.15,3.58,3.58,0,0,1,4.52-1.94,3.63,3.63,0,0,1,1.77,4.66l-1.44,3.43a1.65,1.65,0,0,0,.61,2.32,1.72,1.72,0,0,0,2.17-1.15,3.58,3.58,0,0,1,4.52-1.94,3.63,3.63,0,0,1,1.77,4.66Z" transform="translate(-9.38 -17.51)"/></svg>