<svg id="Layer_1" data-name="Layer 1" xmlns="http://www.w3.org/2000/svg" viewBox="0 0 178.37 172.47"><defs><style>.cls-1{fill:#fff;}</style></defs><title>viz_analysis</title><path class="cls-1" d="M121.3,143.28l-3.12,3.09,9.57,9,9.58-9-3.11-3.09-6.47,6.09Zm-37.91-.91-10,9.54L76.53,155l6.86-6.56L90.26,155l3.13-3.06Zm24.46-3.94H148v21.51H107.86V138.43Zm-44.59,0H103.4v21.51H63.27V138.43ZM81.11,106.6L94.48,114v20.17H81.1V106.6Zm-4.46,0v27.51H63.27V114Zm35.66-5.93v33.45H98.94V113.37Zm17.84-16.93v50.38H116.77V96.44ZM148,66.84v67.28H134.61V79.51ZM60.26,62.94h0a2.48,2.48,0,0,0-.58.1,11.68,11.68,0,0,0-4.47,2.67,10.81,10.81,0,0,0,0,15.56,11.67,11.67,0,0,0,16.07,0,10.74,10.74,0,0,0,2.17-12.58A2.28,2.28,0,0,0,70,68l-6.62,5.45-1.25-1.2a2.28,2.28,0,0,0-3.17,0,2.11,2.11,0,0,0,0,3.07l2.7,2.59a2.29,2.29,0,0,0,3,.12l5.23-4.3a6.27,6.27,0,0,1-1.81,4.51,7,7,0,0,1-9.74,0,6.53,6.53,0,0,1,0-9.47,7,7,0,0,1,2.71-1.62A2.15,2.15,0,0,0,60.26,62.94Zm2.94-2.12A42.15,42.15,0,0,1,93.26,73.75a41.36,41.36,0,0,1-60.1,0A42.12,42.12,0,0,1,63.21,60.82Zm0.06-12.93H148V60.8l-51.8,49.13L80,101a2.31,2.31,0,0,0-2.21,0l-14.49,8V91c21.39,0,35.1-15.85,35.1-15.85a2.1,2.1,0,0,0,0-2.78s-13.7-15.83-35.1-15.85V47.89Zm-4.46-4.32V56.76C39.93,58.69,28.06,72.37,28.06,72.37a2.1,2.1,0,0,0,0,2.78s11.86,13.67,30.75,15.6v73.51h93.63V43.57H58.81ZM98.93,17.66c49.28,0,89.19,38.59,89.19,86.24s-39.91,86.24-89.19,86.24S9.74,151.55,9.74,103.9,49.65,17.66,98.93,17.66Z" transform="translate(-9.74 -17.66)"/></svg>