<svg xmlns="http://www.w3.org/2000/svg" viewBox="0 0 133.25 63.98"><defs><style>.cls-1{isolation:isolate;}.cls-2{fill:#95cb68;}.cls-3{mix-blend-mode:multiply;}.cls-4{fill:#3abce3;}.cls-5{fill:#fff;}</style></defs><title>Analytics_Logo1</title><g class="cls-1"><g id="Layer_1" data-name="Layer 1"><polygon class="cls-2" points="133.23 34.31 132.87 61.9 71.85 61.9 71.93 39.2 83.83 24.92 96.29 0 109.08 15.35 133.23 34.31"/><g class="cls-3"><polygon class="cls-4" points="133.24 11.78 133.25 61.9 71.85 61.9 71.85 50.02 95.98 38.65 107.77 24.59 120.06 20.81 133.24 11.78"/></g><path class="cls-5" d="M90.4,71.37l-1.12,3.39H87.84L91.5,64h1.68l3.68,10.79H95.38l-1.15-3.39H90.4Zm3.54-1.09-1.06-3.1c-0.24-.7-0.4-1.34-0.56-2h0c-0.16.64-.34,1.3-0.54,2l-1.06,3.12h3.25Z" transform="translate(-14.55 -14.32)"/><path class="cls-5" d="M98.35,69.11c0-.8,0-1.46-0.06-2.1h1.25l0.08,1.28h0a2.85,2.85,0,0,1,2.56-1.46c1.07,0,2.74.64,2.74,3.3v4.63h-1.41V70.3c0-1.25-.46-2.29-1.79-2.29a2,2,0,0,0-1.89,1.44,2,2,0,0,0-.1.66v4.66H98.35V69.11Z" transform="translate(-14.55 -14.32)"/><path class="cls-5" d="M111.52,74.76l-0.11-1h0A2.88,2.88,0,0,1,109,74.94a2.21,2.21,0,0,1-2.37-2.23c0-1.87,1.66-2.9,4.66-2.88V69.67a1.6,1.6,0,0,0-1.76-1.79,3.86,3.86,0,0,0-2,.58l-0.32-.93a4.81,4.81,0,0,1,2.54-.69c2.37,0,2.95,1.62,2.95,3.17v2.9a11,11,0,0,0,.13,1.86h-1.28Zm-0.21-4c-1.54,0-3.28.24-3.28,1.74a1.25,1.25,0,0,0,1.33,1.34,1.93,1.93,0,0,0,1.87-1.3,1.48,1.48,0,0,0,.08-0.45V70.81Z" transform="translate(-14.55 -14.32)"/><path class="cls-5" d="M114.94,63.4h1.41V74.76h-1.41V63.4Z" transform="translate(-14.55 -14.32)"/><path class="cls-5" d="M119.23,67l1.7,4.58c0.18,0.51.37,1.12,0.5,1.58h0c0.14-.46.3-1.06,0.5-1.62L123.49,67H125l-2.11,5.52c-1,2.66-1.7,4-2.66,4.85a3.82,3.82,0,0,1-1.73.91l-0.35-1.18a3.73,3.73,0,0,0,1.23-.69,4.27,4.27,0,0,0,1.18-1.57,1,1,0,0,0,.11-0.34,1.22,1.22,0,0,0-.1-0.37L117.69,67h1.54Z" transform="translate(-14.55 -14.32)"/><path class="cls-5" d="M127.95,64.79V67h2v1.07h-2v4.18c0,1,.27,1.5,1.06,1.5a3.14,3.14,0,0,0,.82-0.1l0.06,1.06a3.44,3.44,0,0,1-1.25.19,2,2,0,0,1-1.52-.59,2.87,2.87,0,0,1-.54-2V68.09h-1.2V67h1.2V65.16Z" transform="translate(-14.55 -14.32)"/><path class="cls-5" d="M133.12,64.84a0.87,0.87,0,0,1-1.75,0,0.86,0.86,0,0,1,.88-0.88A0.84,0.84,0,0,1,133.12,64.84Zm-1.57,9.92V67H133v7.75h-1.41Z" transform="translate(-14.55 -14.32)"/><path class="cls-5" d="M140.81,74.47a5.19,5.19,0,0,1-2.22.45,3.68,3.68,0,0,1-3.86-4,3.94,3.94,0,0,1,4.16-4.11,4.7,4.7,0,0,1,2,.4l-0.32,1.09a3.26,3.26,0,0,0-1.63-.37,2.92,2.92,0,0,0,0,5.83,4,4,0,0,0,1.73-.38Z" transform="translate(-14.55 -14.32)"/><path class="cls-5" d="M142.27,73.32a3.69,3.69,0,0,0,1.86.56,1.25,1.25,0,0,0,1.5-1.15c0-.67-0.4-1-1.44-1.42-1.39-.5-2-1.26-2-2.19a2.39,2.39,0,0,1,2.67-2.27,3.86,3.86,0,0,1,1.9.48l-0.35,1a3,3,0,0,0-1.58-.45,1.13,1.13,0,0,0-1.3,1.06c0,0.64.46,0.93,1.47,1.31,1.34,0.51,2,1.18,2,2.34,0,1.36-1.06,2.32-2.9,2.32a4.42,4.42,0,0,1-2.18-.53Z" transform="translate(-14.55 -14.32)"/><path class="cls-4" d="M14.55,70.58V63h2.9V70.5c0,2.15,1.08,3.26,2.85,3.26s2.85-1.07,2.85-3.17V63h2.9v7.45c0,4-2.24,6-5.79,6S14.55,74.46,14.55,70.58Z" transform="translate(-14.55 -14.32)"/><path class="cls-4" d="M29,63h2.9v5.22h5.36V63h2.9v13.2h-2.9v-5.3H31.92v5.3H29V63Z" transform="translate(-14.55 -14.32)"/><path class="cls-4" d="M43.35,63h10v2.58H46.24V68.3h6.22v2.58H46.24v2.77h7.17v2.58H43.35V63Z" transform="translate(-14.55 -14.32)"/><path class="cls-4" d="M56,63h6a5.26,5.26,0,0,1,3.85,1.34,4.14,4.14,0,0,1,1.13,3v0a4.1,4.1,0,0,1-2.83,4.09l3.22,4.71H64L61.18,72H58.9v4.22H56V63Zm5.85,6.41c1.42,0,2.23-.75,2.23-1.87v0c0-1.24-.87-1.89-2.28-1.89H58.9v3.79h2.94Z" transform="translate(-14.55 -14.32)"/><path class="cls-4" d="M69,69.67v0a7,7,0,0,1,14,0v0A7,7,0,0,1,69,69.67Zm11,0v0a4,4,0,0,0-4-4.15,4,4,0,0,0-4,4.11v0a4,4,0,0,0,4,4.15A4,4,0,0,0,80,69.67Z" transform="translate(-14.55 -14.32)"/></g></g></svg>