<svg xmlns="http://www.w3.org/2000/svg" viewBox="0 0 61.4 63.98"><defs><style>.cls-1{isolation:isolate;}.cls-2{fill:#95cb68;}.cls-3{mix-blend-mode:multiply;}.cls-4{fill:#3abce3;}.cls-5{fill:#fff;}</style></defs><title>Analytics_Logo2</title><g class="cls-1"><g id="Layer_1" data-name="Layer 1"><polygon class="cls-2" points="61.38 34.31 61.02 61.9 0 61.9 0.08 39.2 11.98 24.92 24.44 0 37.23 15.35 61.38 34.31"/><g class="cls-3"><polygon class="cls-4" points="61.39 11.78 61.4 61.9 0 61.9 0 50.02 24.13 38.65 35.92 24.59 48.2 20.81 61.39 11.78"/></g><path class="cls-5" d="M14.26,66.22l-1.12,3.39H11.7l3.67-10.79H17l3.68,10.79H19.23l-1.15-3.39H14.26Zm3.54-1.09L16.74,62c-0.24-.7-0.4-1.34-0.56-2h0c-0.16.64-.34,1.3-0.54,2l-1.06,3.12h3.25Z" transform="translate(-10.26 -9.17)"/><path class="cls-5" d="M22.21,64c0-.8,0-1.46-0.06-2.1h1.25l0.08,1.28h0a2.85,2.85,0,0,1,2.56-1.46c1.07,0,2.74.64,2.74,3.3v4.63H27.39V65.15c0-1.25-.46-2.29-1.79-2.29a2,2,0,0,0-1.89,1.44,2,2,0,0,0-.1.66v4.66H22.21V64Z" transform="translate(-10.26 -9.17)"/><path class="cls-5" d="M35.38,69.61l-0.11-1h0a2.88,2.88,0,0,1-2.37,1.15,2.21,2.21,0,0,1-2.37-2.23c0-1.87,1.66-2.9,4.66-2.88V64.52a1.6,1.6,0,0,0-1.76-1.79,3.86,3.86,0,0,0-2,.58L31,62.38a4.81,4.81,0,0,1,2.54-.69c2.37,0,2.95,1.62,2.95,3.17v2.9a11,11,0,0,0,.13,1.86H35.38Zm-0.21-4c-1.54,0-3.28.24-3.28,1.74a1.25,1.25,0,0,0,1.33,1.34,1.93,1.93,0,0,0,1.87-1.3A1.48,1.48,0,0,0,35.17,67V65.66Z" transform="translate(-10.26 -9.17)"/><path class="cls-5" d="M38.8,58.25h1.41V69.61H38.8V58.25Z" transform="translate(-10.26 -9.17)"/><path class="cls-5" d="M43.09,61.87l1.7,4.58C45,67,45.15,67.56,45.28,68h0c0.14-.46.3-1.06,0.5-1.62l1.54-4.55h1.49l-2.11,5.52c-1,2.66-1.7,4-2.66,4.85a3.82,3.82,0,0,1-1.73.91L42,72a3.73,3.73,0,0,0,1.23-.69,4.27,4.27,0,0,0,1.18-1.57,1,1,0,0,0,.11-0.34,1.22,1.22,0,0,0-.1-0.37l-2.86-7.14h1.54Z" transform="translate(-10.26 -9.17)"/><path class="cls-5" d="M51.81,59.64v2.23h2v1.07h-2v4.18c0,1,.27,1.5,1.06,1.5a3.14,3.14,0,0,0,.82-0.1l0.06,1.06a3.44,3.44,0,0,1-1.25.19A2,2,0,0,1,51,69.18a2.87,2.87,0,0,1-.54-2V62.94h-1.2V61.87h1.2V60Z" transform="translate(-10.26 -9.17)"/><path class="cls-5" d="M57,59.69a0.87,0.87,0,0,1-1.75,0,0.86,0.86,0,0,1,.88-0.88A0.84,0.84,0,0,1,57,59.69Zm-1.57,9.92V61.87h1.41v7.75H55.41Z" transform="translate(-10.26 -9.17)"/><path class="cls-5" d="M64.67,69.32a5.19,5.19,0,0,1-2.22.45,3.68,3.68,0,0,1-3.86-4,3.94,3.94,0,0,1,4.16-4.11,4.7,4.7,0,0,1,2,.4l-0.32,1.09a3.26,3.26,0,0,0-1.63-.37,2.92,2.92,0,0,0,0,5.83,4,4,0,0,0,1.73-.38Z" transform="translate(-10.26 -9.17)"/><path class="cls-5" d="M66.13,68.17a3.69,3.69,0,0,0,1.86.56,1.25,1.25,0,0,0,1.5-1.15c0-.67-0.4-1-1.44-1.42-1.39-.5-2-1.26-2-2.19a2.39,2.39,0,0,1,2.67-2.27,3.86,3.86,0,0,1,1.9.48l-0.35,1a3,3,0,0,0-1.58-.45,1.13,1.13,0,0,0-1.3,1.06c0,0.64.46,0.93,1.47,1.31,1.34,0.51,2,1.18,2,2.34,0,1.36-1.06,2.32-2.9,2.32a4.42,4.42,0,0,1-2.18-.53Z" transform="translate(-10.26 -9.17)"/><path class="cls-5" d="M12.71,51.75V45.36h2.46v6.33c0,1.82.91,2.76,2.41,2.76S20,53.54,20,51.77V45.36h2.46v6.31c0,3.39-1.9,5-4.9,5S12.71,55,12.71,51.75Z" transform="translate(-10.26 -9.17)"/><path class="cls-5" d="M25,45.36h2.46v4.43H32V45.36h2.46V56.55H32V52.06H27.42v4.49H25V45.36Z" transform="translate(-10.26 -9.17)"/><path class="cls-5" d="M37.11,45.36h8.44v2.19h-6v2.27h5.27V52H39.55v2.35h6.07v2.19H37.11V45.36Z" transform="translate(-10.26 -9.17)"/><path class="cls-5" d="M47.81,45.36h5.11a4.46,4.46,0,0,1,3.26,1.13,3.51,3.51,0,0,1,1,2.56v0a3.47,3.47,0,0,1-2.4,3.47l2.73,4H54.6L52.21,53H50.27v3.58H47.81V45.36Zm5,5.43a1.62,1.62,0,0,0,1.88-1.58v0c0-1.05-.74-1.6-1.93-1.6H50.27V50.8h2.49Z" transform="translate(-10.26 -9.17)"/><path class="cls-5" d="M58.87,51v0a5.95,5.95,0,0,1,11.89,0v0A5.95,5.95,0,0,1,58.87,51Zm9.31,0v0a3.4,3.4,0,0,0-3.39-3.51,3.34,3.34,0,0,0-3.35,3.48v0a3.4,3.4,0,0,0,3.39,3.52A3.34,3.34,0,0,0,68.19,51Z" transform="translate(-10.26 -9.17)"/></g></g></svg>