<svg xmlns="http://www.w3.org/2000/svg" viewBox="0 0 133.25 63.53"><defs><style>.cls-1{isolation:isolate;}.cls-2{fill:#95cb68;}.cls-3{mix-blend-mode:multiply;}.cls-4{fill:#3abce3;}.cls-5{fill:#fff;}</style></defs><title>Analytics_Logo1</title><g class="cls-1"><g id="Layer_1" data-name="Layer 1"><polygon class="cls-2" points="133.24 34.31 133.25 61.87 71.87 61.9 71.95 39.21 83.85 24.92 96.31 0 109.09 15.35 133.24 34.31"/><g class="cls-3"><polygon class="cls-4" points="71.85 61.88 71.91 49.97 95.98 38.63 107.77 24.57 120.06 20.79 133.24 11.76 133.25 61.88 133.21 61.89 71.85 61.89 71.85 61.88"/></g><path class="cls-4" d="M14.55,69.58V62h2.9V69.5c0,2.15,1.08,3.26,2.85,3.26s2.85-1.07,2.85-3.17V62h2.9v7.45c0,4-2.24,6-5.79,6S14.55,73.46,14.55,69.58Z" transform="translate(-14.55 -14.34)"/><path class="cls-4" d="M29,62h2.9v5.22h5.36V62h2.9v13.2h-2.9v-5.3H31.92v5.3H29V62Z" transform="translate(-14.55 -14.34)"/><path class="cls-4" d="M43.35,62h10v2.58H46.24V67.3h6.22v2.58H46.24v2.77h7.17v2.58H43.35V62Z" transform="translate(-14.55 -14.34)"/><path class="cls-4" d="M56,62h6a5.26,5.26,0,0,1,3.85,1.34,4.14,4.14,0,0,1,1.13,3v0a4.1,4.1,0,0,1-2.83,4.09l3.22,4.71H64L61.18,71H58.9v4.22H56V62Zm5.85,6.41c1.42,0,2.23-.75,2.23-1.87v0c0-1.24-.87-1.89-2.28-1.89H58.9v3.79h2.94Z" transform="translate(-14.55 -14.34)"/><path class="cls-4" d="M69,68.67v0a7,7,0,0,1,14,0v0A7,7,0,0,1,69,68.67Zm11,0v0a4,4,0,0,0-4-4.15,4,4,0,0,0-4,4.11v0a4,4,0,0,0,4,4.15A4,4,0,0,0,80,68.67Z" transform="translate(-14.55 -14.34)"/><path class="cls-5" d="M94.05,70.82H89.14l-1.33,3.59h-1.1l4.35-11.47h1.1l4.35,11.47h-1.1Zm-4.59-.93h4.27l-2.13-5.67Z" transform="translate(-14.55 -14.34)"/><path class="cls-5" d="M99.05,67.72a2.67,2.67,0,0,1,2.58-1.58,3.06,3.06,0,0,1,3.14,3.31v5h-0.94V69.61a2.31,2.31,0,0,0-2.4-2.53,2.28,2.28,0,0,0-2.38,2.43v4.91h-1V66.3h1v1.42Z" transform="translate(-14.55 -14.34)"/><path class="cls-5" d="M107.4,66.74a4.72,4.72,0,0,1,2.31-.61,2.71,2.71,0,0,1,3,3v5.31h-1v-1a2.69,2.69,0,0,1-2.31,1.2,2.74,2.74,0,0,1-2.92-2.73,2.78,2.78,0,0,1,2.93-2.72,2.9,2.9,0,0,1,2.29,1.15V69.1A2,2,0,0,0,109.64,67a4.06,4.06,0,0,0-2.24.71v-1Zm2.19,7.05a2.05,2.05,0,0,0,2.14-1.94,2.09,2.09,0,0,0-2.14-1.92A1.94,1.94,0,1,0,109.59,73.79Z" transform="translate(-14.55 -14.34)"/><path class="cls-5" d="M116.12,74.41h-0.94V62.77h0.94V74.41Z" transform="translate(-14.55 -14.34)"/><path class="cls-5" d="M121,73.79l-3.2-7.49h1.1l2.63,6.29,2.7-6.29h1.1l-5,11.57h-1.1Z" transform="translate(-14.55 -14.34)"/><path class="cls-5" d="M127.53,74.41V67.14h-1.65V66.3h1.69V64.19l0.93-.27V66.3h1.7v0.84h-1.7v7.27h-1Z" transform="translate(-14.55 -14.34)"/><path class="cls-5" d="M132.17,62.93a0.71,0.71,0,0,1,.73.71,0.72,0.72,0,0,1-1.43,0A0.71,0.71,0,0,1,132.17,62.93Zm0.49,11.49h-1V66.3h1v8.11Z" transform="translate(-14.55 -14.34)"/><path class="cls-5" d="M141.13,73.92a4.23,4.23,0,1,1-2.26-7.79,4.31,4.31,0,0,1,2.26.62v1.11a3.47,3.47,0,0,0-2.26-.79,3.28,3.28,0,0,0,0,6.56,3.59,3.59,0,0,0,2.26-.78v1.06Z" transform="translate(-14.55 -14.34)"/><path class="cls-5" d="M147.2,67.7A3,3,0,0,0,145.3,67a1.26,1.26,0,0,0-.73,2.41l1.57,0.94a2.32,2.32,0,0,1,1.38,2c0,1.38-1.1,2.18-2.7,2.18a4.5,4.5,0,0,1-2.09-.54V72.91a3.14,3.14,0,0,0,2.09.81c1.08,0,1.7-.54,1.7-1.3a1.51,1.51,0,0,0-1-1.3l-1.62-1a2.09,2.09,0,0,1-1.2-1.87c0-1.18.88-2.13,2.6-2.13a3.87,3.87,0,0,1,1.89.47v1.1Z" transform="translate(-14.55 -14.34)"/></g></g></svg>